<?xml version="1.0" encoding="utf-8"?>
<!-- Generator: Adobe Illustrator 26.3.1, SVG Export Plug-In . SVG Version: 6.00 Build 0)  -->
<svg version="1.1" id="Layer_1" xmlns="http://www.w3.org/2000/svg" xmlns:xlink="http://www.w3.org/1999/xlink" x="0px" y="0px"
	 viewBox="0 0 99.5 99.5" style="enable-background:new 0 0 99.5 99.5;" xml:space="preserve">
<style type="text/css">
	.st0{fill:#FBFBFB;}
	.st1{fill:#241E1F;}
	.st2{fill:#DA6C1A;}
</style>
<g id="XMLID_00000127760072531918578780000015647360508943517850_">
	<g>
		<path class="st0" d="M85,14.6c19.4,19.4,19.4,51,0,70.4c-19.5,19.4-51,19.4-70.4,0c-19.4-19.4-19.4-51,0-70.4
			C34.1-4.9,65.6-4.9,85,14.6z"/>
	</g>
	<g>
	</g>
</g>
<g>
	<path class="st1" d="M50.8,53.8c-0.6,0-1.1-0.1-1.6-0.4L18.3,35.8c-1-0.6-1.7-1.7-1.7-2.9v-1.7c0-2.9,2.4-5.4,5.4-5.4h56.4
		c3.6,0,6.6,3,6.6,6.6v0.4c0,1.2-0.6,2.3-1.7,2.9L52.4,53.3c-0.5,0.3-1.1,0.4-1.6,0.4L50.8,53.8z M20.7,32.4l30.1,17.2l30.1-17.2
		c0-1.4-1.1-2.5-2.5-2.5H21.9c-0.7,0-1.3,0.6-1.3,1.3L20.7,32.4L20.7,32.4z"/>
	<path class="st1" d="M79.6,73.7H21.9c-3,0-5.4-2.4-5.4-5.4V43.2c0-0.7,0.4-1.4,1-1.8s1.4-0.4,2,0l31.1,17.8l31.1-17.8
		c0.6-0.4,1.4-0.4,2,0s1,1,1,1.8v25.1c0,2.9-2.4,5.4-5.4,5.4H79.6z M20.7,46.7c0,5.5,0,11.1,0,16.6c0,1,0,2,0,3c0,0.2,0,0.5,0,0.7
		c0,0.4,0,0.7,0,1.1c0,0.1,0,0.2,0,0.3c0,0.1,0,0.5,0.4,0.9c0.2,0.2,0.6,0.4,0.9,0.4h57.6c0.7,0,1.3-0.6,1.3-1.3V46.7l-28.1,16
		c-1.2,0.7-2.8,0.7-4,0C47.8,62.2,29.1,51.5,20.7,46.7z"/>
</g>
<g id="XMLID_00000034778233044093355140000004934940905890558630_">
	<g>
	</g>
	<g>
	</g>
</g>
<g id="XMLID_00000026141844285895667680000008131874079767346876_">
	<g>
		<path class="st2" d="M80.9,32.4L50.8,49.6L25.1,34.9l-4.4-2.5h-0.1v-0.8l0-0.6l0.1-0.3l0.2-0.3l0.2-0.2l0.3-0.2l0.3-0.1h56.9
			l0.5,0.1l0.3,0.1l0.4,0.2l0.3,0.2l0.2,0.2l0.2,0.2c0,0,0.1,0.2,0.3,0.7C80.9,32.1,80.8,31.8,80.9,32.4z"/>
	</g>
	<g>
	</g>
</g>
<path class="st2" d="M20.7,46.7"/>
<path class="st2" d="M50.5,63.2h0.7l-1,0l-0.2,0L20.7,46.7l0,19.5l0,2.1l0,0.3l0,0.1c0,0-0.1-0.2,0.1,0.1c0,0.1,0.1,0.2,0.2,0.3
	l0.2,0.2l0.1,0.1l0.1,0l0.2,0.1l0.3,0h28.8h22h6.7l0.4,0l0.3-0.1l0.1-0.1l0.2-0.1l0.1-0.2l0.1-0.1l0.1-0.2c0,0,0-0.1,0.1-0.3
	s0-0.1,0-0.1V46.7c-9.7,5.5-19.4,10.9-29.1,16.4"/>
<path class="st1" d="M51.1,63.2"/>
<path class="st2" d="M20.7,68.5"/>
<path class="st2" d="M26.7,65.7"/>
</svg>
